<?xml version="1.0" encoding="UTF-8" standalone="no"?>
<!DOCTYPE svg PUBLIC "-//W3C//DTD SVG 1.1//EN"
 "http://www.w3.org/Graphics/SVG/1.1/DTD/svg11.dtd">
<!-- Generated by graphviz version 2.43.0 (0)
 -->
<!-- Title: %3 Pages: 1 -->
<svg width="466pt" height="122pt"
 viewBox="0.00 0.00 466.00 122.00" xmlns="http://www.w3.org/2000/svg" xmlns:xlink="http://www.w3.org/1999/xlink">
<g id="graph0" class="graph" transform="scale(1 1) rotate(0) translate(4 118)">
<title>%3</title>
<polygon fill="white" stroke="transparent" points="-4,4 -4,-118 462,-118 462,4 -4,4"/>
<!-- Service -->
<g id="node1" class="node">
<title>Service</title>
<path fill="none" stroke="black" d="M446,-74C446,-74 330,-74 330,-74 324,-74 318,-68 318,-62 318,-62 318,-50 318,-50 318,-44 324,-38 330,-38 330,-38 446,-38 446,-38 452,-38 458,-44 458,-50 458,-50 458,-62 458,-62 458,-68 452,-74 446,-74"/>
<text text-anchor="middle" x="388" y="-52.3" font-family="sans-serif" font-size="14.00">Validation Service</text>
</g>
<!-- Data -->
<g id="node2" class="node">
<title>Data</title>
<text text-anchor="middle" x="153" y="-79.3" font-family="sans-serif" font-size="14.00">Data</text>
</g>
<!-- Data&#45;&gt;Service -->
<g id="edge3" class="edge">
<title>Data&#45;&gt;Service:nw</title>
<path fill="none" stroke="black" stroke-width="2" d="M180.09,-90.92C214.06,-99.55 273.43,-108.69 310.46,-80.58"/>
<polygon fill="black" stroke="black" stroke-width="2" points="312.76,-83.21 318,-74 308.16,-77.93 312.76,-83.21"/>
<text text-anchor="middle" x="253.5" y="-102.8" font-family="sans-serif" font-size="14.00">validate</text>
</g>
<!-- Data&#45;&gt;Service -->
<g id="edge4" class="edge">
<title>Data&#45;&gt;Service:w</title>
<path fill="none" stroke="black" d="M190.12,-72.73C195.74,-71.34 201.51,-70.04 207,-69 255.8,-59.75 268.33,-56 318,-56"/>
<polygon fill="black" stroke="black" points="189.06,-69.39 180.25,-75.28 190.81,-76.17 189.06,-69.39"/>
<text text-anchor="middle" x="253.5" y="-72.8" font-family="sans-serif" font-size="14.00">errors</text>
</g>
<!-- Formats -->
<g id="node3" class="node">
<title>Formats</title>
<path fill="none" stroke="black" d="M177,-36C177,-36 129,-36 129,-36 123,-36 117,-30 117,-24 117,-24 117,-12 117,-12 117,-6 123,0 129,0 129,0 177,0 177,0 183,0 189,-6 189,-12 189,-12 189,-24 189,-24 189,-30 183,-36 177,-36"/>
<text text-anchor="middle" x="153" y="-14.3" font-family="sans-serif" font-size="14.00">Formats</text>
</g>
<!-- Formats&#45;&gt;Service -->
<g id="edge1" class="edge">
<title>Formats&#45;&gt;Service:sw</title>
<path fill="none" stroke="black" d="M189.3,-10.97C224.09,-6.14 276.86,-4.65 311.13,-31.09"/>
<polygon fill="black" stroke="black" points="309.18,-34.03 319,-38 313.8,-28.77 309.18,-34.03"/>
<text text-anchor="middle" x="253.5" y="-26.8" font-family="sans-serif" font-size="14.00">configuration</text>
</g>
<!-- Schemas -->
<g id="node4" class="node">
<title>Schemas</title>
<path fill="none" stroke="black" d="M68,-36C68,-36 12,-36 12,-36 6,-36 0,-30 0,-24 0,-24 0,-12 0,-12 0,-6 6,0 12,0 12,0 68,0 68,0 74,0 80,-6 80,-12 80,-12 80,-24 80,-24 80,-30 74,-36 68,-36"/>
<text text-anchor="middle" x="40" y="-14.3" font-family="sans-serif" font-size="14.00">Schemas</text>
</g>
<!-- Schemas&#45;&gt;Formats -->
<g id="edge2" class="edge">
<title>Schemas&#45;&gt;Formats</title>
<path fill="none" stroke="black" d="M80.13,-18C88.75,-18 97.94,-18 106.77,-18"/>
<polygon fill="black" stroke="black" points="106.92,-21.5 116.92,-18 106.92,-14.5 106.92,-21.5"/>
</g>
</g>
</svg>
