<?xml version="1.0" encoding="UTF-8" standalone="no"?>
<!DOCTYPE svg PUBLIC "-//W3C//DTD SVG 1.1//EN"
 "http://www.w3.org/Graphics/SVG/1.1/DTD/svg11.dtd">
<!-- Generated by graphviz version 2.43.0 (0)
 -->
<!-- Title: %3 Pages: 1 -->
<svg width="301pt" height="332pt"
 viewBox="0.00 0.00 300.50 332.00" xmlns="http://www.w3.org/2000/svg" xmlns:xlink="http://www.w3.org/1999/xlink">
<g id="graph0" class="graph" transform="scale(1 1) rotate(0) translate(4 328)">
<title>%3</title>
<polygon fill="white" stroke="transparent" points="-4,4 -4,-328 296.5,-328 296.5,4 -4,4"/>
<!-- Bytes -->
<g id="node1" class="node">
<title>Bytes</title>
<ellipse fill="none" stroke="black" cx="137.5" cy="-306" rx="36.29" ry="18"/>
<text text-anchor="middle" x="137.5" y="-302.3" font-family="sans-serif" font-size="14.00">Bytes</text>
</g>
<!-- XML -->
<g id="node2" class="node">
<title>XML</title>
<ellipse fill="none" stroke="black" cx="137.5" cy="-234" rx="29.8" ry="18"/>
<text text-anchor="middle" x="137.5" y="-230.3" font-family="sans-serif" font-size="14.00">XML</text>
</g>
<!-- Bytes&#45;&gt;XML -->
<g id="edge1" class="edge">
<title>Bytes&#45;&gt;XML</title>
<path fill="none" stroke="black" d="M137.5,-287.7C137.5,-279.98 137.5,-270.71 137.5,-262.11"/>
<polygon fill="black" stroke="black" points="141,-262.1 137.5,-252.1 134,-262.1 141,-262.1"/>
</g>
<!-- marcxml -->
<g id="node4" class="node">
<title>marcxml</title>
<ellipse fill="none" stroke="black" cx="137.5" cy="-162" rx="59.29" ry="18"/>
<text text-anchor="middle" x="137.5" y="-158.3" font-family="sans-serif" font-size="14.00">MARC/XML</text>
</g>
<!-- XML&#45;&gt;marcxml -->
<g id="edge3" class="edge">
<title>XML&#45;&gt;marcxml</title>
<path fill="none" stroke="black" d="M137.5,-215.7C137.5,-207.98 137.5,-198.71 137.5,-190.11"/>
<polygon fill="black" stroke="black" points="141,-190.1 137.5,-180.1 134,-190.1 141,-190.1"/>
</g>
<!-- parser -->
<g id="node6" class="node">
<title>parser</title>
<text text-anchor="middle" x="216.5" y="-230.3" font-family="sans-serif" font-size="14.00">parser</text>
</g>
<!-- XML&#45;&gt;parser -->
<g id="edge5" class="edge">
<title>XML&#45;&gt;parser</title>
<path fill="none" stroke="black" d="M177.57,-234C180.2,-234 182.82,-234 185.45,-234"/>
<polygon fill="black" stroke="black" points="167.43,-234 177.43,-229.5 172.43,-234 177.43,-234 177.43,-234 177.43,-234 172.43,-234 177.43,-238.5 167.43,-234 167.43,-234"/>
</g>
<!-- sequence -->
<g id="node3" class="node">
<title>sequence</title>
<text text-anchor="middle" x="41.5" y="-302.3" font-family="sans-serif" font-size="14.00">sequence</text>
</g>
<!-- sequence&#45;&gt;Bytes -->
<!-- schema -->
<g id="node7" class="node">
<title>schema</title>
<text text-anchor="middle" x="250.5" y="-158.3" font-family="sans-serif" font-size="14.00">schema</text>
</g>
<!-- marcxml&#45;&gt;schema -->
<g id="edge6" class="edge">
<title>marcxml&#45;&gt;schema</title>
<path fill="none" stroke="black" d="M206.82,-162C209.46,-162 212.1,-162 214.74,-162"/>
<polygon fill="black" stroke="black" points="196.65,-162 206.65,-157.5 201.65,-162 206.65,-162 206.65,-162 206.65,-162 201.65,-162 206.65,-166.5 196.65,-162 196.65,-162"/>
</g>
<!-- MARC -->
<g id="node8" class="node">
<title>MARC</title>
<ellipse fill="none" stroke="black" cx="137.5" cy="-90" rx="37.09" ry="18"/>
<text text-anchor="middle" x="137.5" y="-86.3" font-family="sans-serif" font-size="14.00">MARC</text>
</g>
<!-- marcxml&#45;&gt;MARC -->
<g id="edge7" class="edge">
<title>marcxml&#45;&gt;MARC</title>
<path fill="none" stroke="black" d="M137.5,-143.7C137.5,-135.98 137.5,-126.71 137.5,-118.11"/>
<polygon fill="black" stroke="black" points="141,-118.1 137.5,-108.1 134,-118.1 141,-118.1"/>
</g>
<!-- tree -->
<g id="node5" class="node">
<title>tree</title>
<text text-anchor="middle" x="62.5" y="-230.3" font-family="sans-serif" font-size="14.00">tree</text>
</g>
<!-- tree&#45;&gt;XML -->
<!-- Custom -->
<g id="node10" class="node">
<title>Custom</title>
<ellipse fill="none" stroke="black" cx="137.5" cy="-18" rx="83.39" ry="18"/>
<text text-anchor="middle" x="137.5" y="-14.3" font-family="sans-serif" font-size="14.00">MARC21 Subset</text>
</g>
<!-- MARC&#45;&gt;Custom -->
<g id="edge9" class="edge">
<title>MARC&#45;&gt;Custom</title>
<path fill="none" stroke="black" d="M137.5,-71.7C137.5,-63.98 137.5,-54.71 137.5,-46.11"/>
<polygon fill="black" stroke="black" points="141,-46.1 137.5,-36.1 134,-46.1 141,-46.1"/>
</g>
<!-- fields -->
<g id="node9" class="node">
<title>fields</title>
<text text-anchor="middle" x="55.5" y="-86.3" font-family="sans-serif" font-size="14.00">fields</text>
</g>
<!-- fields&#45;&gt;MARC -->
<!-- rules -->
<g id="node11" class="node">
<title>rules</title>
<text text-anchor="middle" x="265.5" y="-14.3" font-family="sans-serif" font-size="14.00">rules</text>
</g>
<!-- Custom&#45;&gt;rules -->
<g id="edge10" class="edge">
<title>Custom&#45;&gt;rules</title>
<path fill="none" stroke="black" d="M231.05,-18C233.49,-18 235.94,-18 238.38,-18"/>
<polygon fill="black" stroke="black" points="221,-18 231,-13.5 226,-18 231,-18 231,-18 231,-18 226,-18 231,-22.5 221,-18 221,-18"/>
</g>
</g>
</svg>
