<?xml version="1.0" encoding="UTF-8" standalone="no"?>
<!DOCTYPE svg PUBLIC "-//W3C//DTD SVG 1.1//EN"
 "http://www.w3.org/Graphics/SVG/1.1/DTD/svg11.dtd">
<!-- Generated by graphviz version 2.43.0 (0)
 -->
<!-- Title: %3 Pages: 1 -->
<svg width="428pt" height="109pt"
 viewBox="0.00 0.00 428.00 109.00" xmlns="http://www.w3.org/2000/svg" xmlns:xlink="http://www.w3.org/1999/xlink">
<g id="graph0" class="graph" transform="scale(1 1) rotate(0) translate(4 105)">
<title>%3</title>
<polygon fill="white" stroke="transparent" points="-4,4 -4,-105 424,-105 424,4 -4,4"/>
<!-- Service -->
<g id="node1" class="node">
<title>Service</title>
<path fill="none" stroke="black" d="M408,-68C408,-68 292,-68 292,-68 286,-68 280,-62 280,-56 280,-56 280,-44 280,-44 280,-38 286,-32 292,-32 292,-32 408,-32 408,-32 414,-32 420,-38 420,-44 420,-44 420,-56 420,-56 420,-62 414,-68 408,-68"/>
<text text-anchor="middle" x="350" y="-46.3" font-family="sans-serif" font-size="14.00">Validation Service</text>
</g>
<!-- Data -->
<g id="node2" class="node">
<title>Data</title>
<text text-anchor="middle" x="153" y="-68.3" font-family="sans-serif" font-size="14.00">Data</text>
</g>
<!-- Data&#45;&gt;Service -->
<g id="edge3" class="edge">
<title>Data&#45;&gt;Service:nw</title>
<path fill="none" stroke="black" stroke-width="2" d="M180.24,-80.39C206.27,-87.06 245.95,-92.56 272.29,-74.42"/>
<polygon fill="black" stroke="black" stroke-width="2" points="274.55,-77.09 280,-68 270.07,-71.7 274.55,-77.09"/>
<text text-anchor="middle" x="234.5" y="-89.8" font-family="sans-serif" font-size="14.00">validate</text>
</g>
<!-- Formats -->
<g id="node3" class="node">
<title>Formats</title>
<path fill="none" stroke="black" d="M177,-36C177,-36 129,-36 129,-36 123,-36 117,-30 117,-24 117,-24 117,-12 117,-12 117,-6 123,0 129,0 129,0 177,0 177,0 183,0 189,-6 189,-12 189,-12 189,-24 189,-24 189,-30 183,-36 177,-36"/>
<text text-anchor="middle" x="153" y="-14.3" font-family="sans-serif" font-size="14.00">Formats</text>
</g>
<!-- Formats&#45;&gt;Service -->
<g id="edge1" class="edge">
<title>Formats&#45;&gt;Service:sw</title>
<path fill="none" stroke="black" d="M189.19,-11.11C215,-8.06 249.55,-8.36 273.36,-25.52"/>
<polygon fill="black" stroke="black" points="271.11,-28.2 281,-32 275.64,-22.86 271.11,-28.2"/>
</g>
<!-- Schemas -->
<g id="node4" class="node">
<title>Schemas</title>
<path fill="none" stroke="black" d="M68,-36C68,-36 12,-36 12,-36 6,-36 0,-30 0,-24 0,-24 0,-12 0,-12 0,-6 6,0 12,0 12,0 68,0 68,0 74,0 80,-6 80,-12 80,-12 80,-24 80,-24 80,-30 74,-36 68,-36"/>
<text text-anchor="middle" x="40" y="-14.3" font-family="sans-serif" font-size="14.00">Schemas</text>
</g>
<!-- Schemas&#45;&gt;Formats -->
<g id="edge2" class="edge">
<title>Schemas&#45;&gt;Formats</title>
<path fill="none" stroke="black" d="M80.13,-18C88.75,-18 97.94,-18 106.77,-18"/>
<polygon fill="black" stroke="black" points="106.92,-21.5 116.92,-18 106.92,-14.5 106.92,-21.5"/>
</g>
</g>
</svg>
